<svg xmlns="http://www.w3.org/2000/svg" viewBox="0 0 357.12 193.74"><defs><style>.cls-1{fill:#191919;}</style></defs><g id="Warstwa_1" data-name="Warstwa 1"><path class="cls-1" d="M6.53,86,0,.73H8.17l4,56.85h.25L17.84.73h6.79l5.91,56.85h.25L34.93.73h7.42L35.81,86H27.39l-6-52.83h-.12L16,86Z"/><path class="cls-1" d="M54.28,7.69V40.26H63v6.22H54.28V79.05H66.1v7H45.74V.73H65.47v7Z"/><path class="cls-1" d="M94.87,33.92a10.58,10.58,0,0,1-1.26,5.79,5.92,5.92,0,0,1-3.14,2.5,5.35,5.35,0,0,1,3.14,2.38,10.58,10.58,0,0,1,1.26,5.79V74.66a12.23,12.23,0,0,1-1,5.13,10.27,10.27,0,0,1-2.58,3.54,10.68,10.68,0,0,1-3.64,2,13.21,13.21,0,0,1-4.09.67H70.24V.73H83.56a13.51,13.51,0,0,1,4.09.67,9.64,9.64,0,0,1,3.64,2.14,11.27,11.27,0,0,1,2.58,3.72,13.26,13.26,0,0,1,1,5.43ZM83.44,39.16c1.92,0,2.89-1.91,2.89-5.73V13.91a8.61,8.61,0,0,0-1-4.76,2.87,2.87,0,0,0-2.39-1.46H78.79V39.16ZM86.33,51q0-5.74-3-5.74H78.79V79.05h4a3,3,0,0,0,2.51-1.34,7.16,7.16,0,0,0,1-4.27Z"/><path class="cls-1" d="M115.48,35v-22a8.38,8.38,0,0,0-1-4.69A2.84,2.84,0,0,0,112.14,7h-.74a2.88,2.88,0,0,0-2.35,1.34q-1,1.35-1,4.89V24a20.23,20.23,0,0,0,2.52,10.25,80.34,80.34,0,0,0,5.53,8.42,85.71,85.71,0,0,1,5.53,8.36,20.22,20.22,0,0,1,2.51,10.31V74.79a14,14,0,0,1-1,5.42,10.11,10.11,0,0,1-2.59,3.73A10.41,10.41,0,0,1,117,86.07a13.1,13.1,0,0,1-4.17.67H111a13,13,0,0,1-4.16-.67,11.17,11.17,0,0,1-3.73-2.13,10.51,10.51,0,0,1-2.72-3.73,13.24,13.24,0,0,1-1-5.42V51.61h7.92v22c0,2.27.37,3.88,1.11,4.81a3.39,3.39,0,0,0,2.73,1.41h.62a3.21,3.21,0,0,0,2.66-1.41c.7-.93,1-2.54,1-4.81V62.71A19.9,19.9,0,0,0,113,52.52a85,85,0,0,0-5.52-8.36,81.27,81.27,0,0,1-5.53-8.41,20.5,20.5,0,0,1-2.52-10.37V12a13.26,13.26,0,0,1,1-5.43,10.88,10.88,0,0,1,2.66-3.73A10.41,10.41,0,0,1,106.72.67,13.1,13.1,0,0,1,110.89,0h1.26a12.63,12.63,0,0,1,4,.67,10.54,10.54,0,0,1,3.67,2.13,10.35,10.35,0,0,1,2.59,3.73,14,14,0,0,1,.94,5.43V35Z"/><path class="cls-1" d="M137.59.73V86h-8.54V.73Z"/><path class="cls-1" d="M166.37,7.69H158V86h-8.54V7.69H141v-7h25.38Z"/><path class="cls-1" d="M178.18,7.69V40.26h8.67v6.22h-8.67V79.05H190v7H169.63V.73h19.73v7Z"/><path class="cls-1" d="M225.55,86.74a12.87,12.87,0,0,1-4.14-.67,9.79,9.79,0,0,1-3.59-2.13,11.4,11.4,0,0,1-2.57-3.73,13.24,13.24,0,0,1-1-5.42V.73h8.55V73.57c0,2.27.33,3.88,1,4.81a2.9,2.9,0,0,0,2.39,1.41h.75a2.89,2.89,0,0,0,2.39-1.41c.67-.93,1-2.54,1-4.81V.73h8.54V74.79a13.25,13.25,0,0,1-1,5.42,11.27,11.27,0,0,1-2.58,3.73,9.75,9.75,0,0,1-3.64,2.13,13.21,13.21,0,0,1-4.09.67Z"/><path class="cls-1" d="M262.44,86l-11.5-59.9h-.13V86h-7.16V.73h9.67l10.81,59.05V.73h7.92V86Z"/><path class="cls-1" d="M277,86V.73h13.32a14.68,14.68,0,0,1,4.08.61,9.49,9.49,0,0,1,3.64,2A10.79,10.79,0,0,1,300.57,7a12.9,12.9,0,0,1,1,5.37v62.1a12.87,12.87,0,0,1-1,5.37,10.79,10.79,0,0,1-2.58,3.6,9.49,9.49,0,0,1-3.64,2,14.32,14.32,0,0,1-4.08.61Zm8.54-78.32V79.05h4.15A2.94,2.94,0,0,0,292,77.77c.67-.85,1-2.37,1-4.57V13.54c0-2.19-.34-3.72-1-4.57a2.94,2.94,0,0,0-2.38-1.28Z"/><path class="cls-1" d="M315.14,7.69V40.26h8.68v6.22h-8.68V79.05H327v7H306.6V.73h19.73v7Z"/><path class="cls-1" d="M355.73,35.13a10.7,10.7,0,0,1-1.25,5.8,5.93,5.93,0,0,1-3.15,2.5,5.4,5.4,0,0,1,3.15,2.38,10.7,10.7,0,0,1,1.25,5.8V71.49a77.13,77.13,0,0,0,.51,10.8,14,14,0,0,0,.88,3.72h-8.55a11.68,11.68,0,0,1-1.13-4.88q-.26-3.42-.25-9.64V52.34q0-5.87-3-5.86h-4.52V86H331.1V.73h13.45a11.39,11.39,0,0,1,7.85,3q3.33,3,3.33,8.85Zm-11.56,5.25q3,0,3-5.73V13.79a8.33,8.33,0,0,0-1-4.64,3,3,0,0,0-2.51-1.46h-4V40.38Z"/><path class="cls-1" d="M13.46,193.74a13.92,13.92,0,0,1-4.31-.67,10.32,10.32,0,0,1-3.72-2.13,11.17,11.17,0,0,1-2.67-3.73,12.75,12.75,0,0,1-1-5.42V119a12.77,12.77,0,0,1,1-5.43,11.17,11.17,0,0,1,2.67-3.73,10.32,10.32,0,0,1,3.72-2.13,13.92,13.92,0,0,1,4.31-.67h2.09a14.09,14.09,0,0,1,4.24.67,10.2,10.2,0,0,1,3.79,2.13,11.32,11.32,0,0,1,2.67,3.73A12.77,12.77,0,0,1,27.3,119v23.17H18.42V120.05c0-2.19-.35-3.76-1-4.69A3,3,0,0,0,14.9,114h-.79a3.08,3.08,0,0,0-2.48,1.34c-.69.9-1,2.53-1,4.89v60.39c0,2.27.35,3.88,1,4.81a3,3,0,0,0,2.48,1.41h.79a3,3,0,0,0,2.48-1.41c.69-.93,1-2.54,1-4.81V158.48H27.3v23.31a12.75,12.75,0,0,1-1.05,5.42,11.32,11.32,0,0,1-2.67,3.73,10.2,10.2,0,0,1-3.79,2.13,14.09,14.09,0,0,1-4.24.67Z"/><path class="cls-1" d="M44.53,193.74a13.92,13.92,0,0,1-4.31-.67,10.32,10.32,0,0,1-3.72-2.13,11.34,11.34,0,0,1-2.68-3.73,12.91,12.91,0,0,1-1-5.42V119a12.92,12.92,0,0,1,1-5.43,11.34,11.34,0,0,1,2.68-3.73,10.32,10.32,0,0,1,3.72-2.13,13.92,13.92,0,0,1,4.31-.67h2.09a14.14,14.14,0,0,1,4.24.67,10.16,10.16,0,0,1,3.78,2.13,11.34,11.34,0,0,1,2.68,3.73,12.77,12.77,0,0,1,1,5.43v62.83a12.75,12.75,0,0,1-1,5.42,11.34,11.34,0,0,1-2.68,3.73,10.16,10.16,0,0,1-3.78,2.13,14.14,14.14,0,0,1-4.24.67ZM45.18,114a3,3,0,0,0-2.48,1.47,8.33,8.33,0,0,0-1,4.76v60.39c0,2.27.34,3.88,1,4.81a3,3,0,0,0,2.48,1.41H46a3,3,0,0,0,2.48-1.41c.7-.93,1.05-2.54,1.05-4.81V120.18a8.32,8.32,0,0,0-1.05-4.76A3,3,0,0,0,46,114Z"/><path class="cls-1" d="M83.37,193l-12-59.9h-.13V193H63.85V107.73H73.9l11.23,59.05v-59h8.22V193Z"/><path class="cls-1" d="M115.41,142v-22c0-2.19-.34-3.76-1-4.69a3,3,0,0,0-2.44-1.41h-.77a3,3,0,0,0-2.44,1.34q-1,1.35-1,4.89V131a19.68,19.68,0,0,0,2.61,10.25,80.58,80.58,0,0,0,5.74,8.42,86.05,86.05,0,0,1,5.75,8.36,19.57,19.57,0,0,1,2.61,10.31v13.42a13.42,13.42,0,0,1-1,5.42,10.09,10.09,0,0,1-2.69,3.73,10.91,10.91,0,0,1-3.8,2.13,14.09,14.09,0,0,1-4.33.67h-1.84a14,14,0,0,1-4.33-.67,11.69,11.69,0,0,1-3.87-2.13,10.5,10.5,0,0,1-2.82-3.73,12.75,12.75,0,0,1-1-5.42V158.61h8.22v22c0,2.27.39,3.88,1.16,4.81a3.54,3.54,0,0,0,2.83,1.41h.64a3.36,3.36,0,0,0,2.77-1.41c.72-.93,1.09-2.54,1.09-4.81V169.71a19.36,19.36,0,0,0-2.61-10.19,85.5,85.5,0,0,0-5.75-8.36,83.13,83.13,0,0,1-5.74-8.41,19.94,19.94,0,0,1-2.61-10.37V119a12.77,12.77,0,0,1,1-5.43,10.65,10.65,0,0,1,6.56-5.86,14,14,0,0,1,4.33-.67H112a13.63,13.63,0,0,1,4.19.67A11,11,0,0,1,120,109.8a10.21,10.21,0,0,1,2.69,3.73,13.62,13.62,0,0,1,1,5.43v23Z"/><path class="cls-1" d="M154.44,114.69H145.7V193h-8.88V114.69h-8.75v-7h26.37Z"/><path class="cls-1" d="M183.94,142.13a10.39,10.39,0,0,1-1.3,5.8,6.15,6.15,0,0,1-3.27,2.5,5.61,5.61,0,0,1,3.27,2.38,10.39,10.39,0,0,1,1.3,5.8v19.88a75.16,75.16,0,0,0,.52,10.8,14.2,14.2,0,0,0,.92,3.72H176.5a11.28,11.28,0,0,1-1.17-4.88q-.27-3.42-.27-9.64V159.34q0-5.86-3.13-5.86h-4.7V193h-8.87V107.73h14a12.09,12.09,0,0,1,8.16,3q3.47,3,3.46,8.85Zm-12,5.25q3.13,0,3.13-5.73V120.79a8.14,8.14,0,0,0-1-4.64,3.11,3.11,0,0,0-2.61-1.46h-4.18v32.69Z"/><path class="cls-1" d="M202.22,193.74a13.92,13.92,0,0,1-4.31-.67,10.32,10.32,0,0,1-3.72-2.13,11.34,11.34,0,0,1-2.68-3.73,12.75,12.75,0,0,1-1-5.42V107.73h8.87v72.84c0,2.27.35,3.88,1,4.81a3,3,0,0,0,2.48,1.41h.78a3,3,0,0,0,2.48-1.41c.7-.93,1.05-2.54,1.05-4.81V107.73h8.87v74.06a12.75,12.75,0,0,1-1,5.42,11.34,11.34,0,0,1-2.68,3.73,10.24,10.24,0,0,1-3.78,2.13,14.16,14.16,0,0,1-4.25.67Z"/><path class="cls-1" d="M233.28,193.74a13.85,13.85,0,0,1-4.3-.67,10.15,10.15,0,0,1-3.72-2.13,11.34,11.34,0,0,1-2.68-3.73,12.75,12.75,0,0,1-1-5.42V119a12.77,12.77,0,0,1,1-5.43,11.34,11.34,0,0,1,2.68-3.73,10.15,10.15,0,0,1,3.72-2.13,13.85,13.85,0,0,1,4.3-.67h2.09a14.2,14.2,0,0,1,4.25.67,10.24,10.24,0,0,1,3.78,2.13,11.34,11.34,0,0,1,2.68,3.73,12.92,12.92,0,0,1,1,5.43v23.17h-8.88V120.05c0-2.19-.34-3.76-1-4.69a3,3,0,0,0-2.48-1.41h-.78a3.07,3.07,0,0,0-2.48,1.34q-1.05,1.35-1.05,4.89v60.39c0,2.27.35,3.88,1.05,4.81a3,3,0,0,0,2.48,1.41h.78a3,3,0,0,0,2.48-1.41c.7-.93,1-2.54,1-4.81V158.48h8.88v23.31a12.91,12.91,0,0,1-1,5.42,11.34,11.34,0,0,1-2.68,3.73,10.24,10.24,0,0,1-3.78,2.13,14.2,14.2,0,0,1-4.25.67Z"/><path class="cls-1" d="M277.28,114.69h-8.75V193h-8.88V114.69h-8.74v-7h26.37Z"/><path class="cls-1" d="M290.07,107.73V193h-8.88V107.73Z"/><path class="cls-1" d="M307.56,193.74a13.92,13.92,0,0,1-4.31-.67,10.32,10.32,0,0,1-3.72-2.13,11.34,11.34,0,0,1-2.68-3.73,12.91,12.91,0,0,1-1-5.42V119a12.92,12.92,0,0,1,1-5.43,11.34,11.34,0,0,1,2.68-3.73,10.32,10.32,0,0,1,3.72-2.13,13.92,13.92,0,0,1,4.31-.67h2.09a14.14,14.14,0,0,1,4.24.67,10.24,10.24,0,0,1,3.78,2.13,11.34,11.34,0,0,1,2.68,3.73,12.77,12.77,0,0,1,1,5.43v62.83a12.75,12.75,0,0,1-1,5.42,11.34,11.34,0,0,1-2.68,3.73,10.24,10.24,0,0,1-3.78,2.13,14.14,14.14,0,0,1-4.24.67Zm.65-79.79a3,3,0,0,0-2.48,1.47,8.33,8.33,0,0,0-1,4.76v60.39c0,2.27.34,3.88,1,4.81a3,3,0,0,0,2.48,1.41H309a3,3,0,0,0,2.48-1.41c.7-.93,1-2.54,1-4.81V120.18a8.32,8.32,0,0,0-1-4.76A3,3,0,0,0,309,114Z"/><path class="cls-1" d="M346.4,193l-11.95-59.9h-.13V193h-7.44V107.73h10.05l11.22,59.05v-59h8.23V193Z"/></g></svg>