<svg xmlns="http://www.w3.org/2000/svg" viewBox="0 0 273.19 193.26"><defs><style>.cls-1{fill:#191919;}</style></defs><g id="Warstwa_8" data-name="Warstwa 8"><path class="cls-1" d="M17.85,35.28V13.15c0-2.21-.35-3.79-1-4.73A3,3,0,0,0,14.36,7h-.78a3,3,0,0,0-2.46,1.35c-.69.9-1,2.54-1,4.92V24.22a19.75,19.75,0,0,0,2.63,10.32A82.94,82.94,0,0,0,18.5,43a83.82,83.82,0,0,1,5.79,8.42,19.67,19.67,0,0,1,2.63,10.38V75.36a13.67,13.67,0,0,1-1,5.47,10.3,10.3,0,0,1-2.71,3.75,10.93,10.93,0,0,1-3.83,2.15A14.28,14.28,0,0,1,15,87.4H13.17a14.23,14.23,0,0,1-4.36-.67,11.7,11.7,0,0,1-3.9-2.15,10.6,10.6,0,0,1-2.84-3.75A12.83,12.83,0,0,1,1,75.36V52H9.3V74.13c0,2.29.39,3.91,1.16,4.85a3.59,3.59,0,0,0,2.85,1.42H14A3.42,3.42,0,0,0,16.75,79c.73-.94,1.1-2.56,1.1-4.85V63.19a19.54,19.54,0,0,0-2.63-10.27A87.28,87.28,0,0,0,9.43,44.5,81.81,81.81,0,0,1,3.64,36,20.1,20.1,0,0,1,1,25.57V12.05A12.8,12.8,0,0,1,2.07,6.58,10.76,10.76,0,0,1,8.68.68,14.26,14.26,0,0,1,13.05,0h1.32a13.74,13.74,0,0,1,4.22.68,10.9,10.9,0,0,1,3.84,2.15,10.13,10.13,0,0,1,2.71,3.75,13.64,13.64,0,0,1,1,5.47V35.28Z"/><path class="cls-1" d="M57.18,7.74H48.36V86.67H39.42V7.74H30.61v-7H57.18Z"/><path class="cls-1" d="M86.9,35.4c0,2.63-.44,4.57-1.31,5.84a6.23,6.23,0,0,1-3.29,2.52,5.64,5.64,0,0,1,3.29,2.4q1.3,1.91,1.31,5.84V72a75.88,75.88,0,0,0,.53,10.88,14.32,14.32,0,0,0,.92,3.75H79.4a11.62,11.62,0,0,1-1.18-4.92C78,79.45,78,76.22,78,72V52.74c0-3.94-1.06-5.9-3.16-5.9H70.07V86.67H61.12V.74H75.19a12.19,12.19,0,0,1,8.23,3q3.48,3,3.48,8.91ZM74.8,40.69c2.1,0,3.16-1.93,3.16-5.78v-21A8.07,8.07,0,0,0,76.9,9.22a3.13,3.13,0,0,0-2.63-1.48h-4.2V40.69Z"/><path class="cls-1" d="M105.05,87.4a14.11,14.11,0,0,1-4.34-.67A10.34,10.34,0,0,1,97,84.58a11.56,11.56,0,0,1-2.69-3.75,12.83,12.83,0,0,1-1.06-5.47V12.05a12.8,12.8,0,0,1,1.06-5.47A11.35,11.35,0,0,1,97,2.83,10.2,10.2,0,0,1,100.71.68,14.12,14.12,0,0,1,105.05,0h2.11a14.3,14.3,0,0,1,4.27.68,10.09,10.09,0,0,1,3.82,2.15,11.35,11.35,0,0,1,2.69,3.75A13,13,0,0,1,119,12.05V75.36a13,13,0,0,1-1.06,5.47,11.56,11.56,0,0,1-2.69,3.75,10.23,10.23,0,0,1-3.82,2.15,14.28,14.28,0,0,1-4.27.67ZM105.71,7a3,3,0,0,0-2.5,1.47,8.47,8.47,0,0,0-1,4.8V74.13c0,2.29.35,3.91,1,4.85a3.07,3.07,0,0,0,2.5,1.42h.79A3.09,3.09,0,0,0,109,79c.7-.94,1-2.56,1-4.85V13.28a8.47,8.47,0,0,0-1-4.8A3.05,3.05,0,0,0,106.5,7Z"/><path class="cls-1" d="M144.19,86.67l-12-60.36H132V86.67h-7.5V.74h10.13L146,60.24V.74h8.29V86.67Z"/><path class="cls-1" d="M175.82,63.43h-8l-2.23,23.24h-7.63L166.34.74h11.32l8.94,85.93h-8.55Zm-7.5-6.27h6.84L172,23.85h-.39Z"/><path class="cls-1" d="M6.84,192.52,0,106.59H8.55l4.21,57.29H13l5.66-57.29h7.1L32,163.88h.27l4.34-57.29h7.76l-6.84,85.93H28.68l-6.32-53.23h-.13L16.7,192.52Z"/><path class="cls-1" d="M90.49,140c0,2.63-.44,4.57-1.31,5.84a6.2,6.2,0,0,1-3.29,2.52,5.61,5.61,0,0,1,3.29,2.4c.87,1.27,1.31,3.21,1.31,5.84v24.46a11.88,11.88,0,0,1-1,5.16,10.19,10.19,0,0,1-2.69,3.57,11.21,11.21,0,0,1-3.82,2,14.33,14.33,0,0,1-4.27.67h-14V106.59h14a14.35,14.35,0,0,1,4.27.68,10.23,10.23,0,0,1,3.82,2.15,11.35,11.35,0,0,1,2.69,3.75,13,13,0,0,1,1,5.47Zm-12,5.29q3,0,3-5.78V119.87a8.43,8.43,0,0,0-1-4.79A3,3,0,0,0,78,113.6H73.66v31.72Zm3,11.92q0-5.78-3.16-5.78H73.66v34h4.21a3.2,3.2,0,0,0,2.63-1.35,7,7,0,0,0,1-4.3Z"/><path class="cls-1" d="M107.86,193.26a14.07,14.07,0,0,1-4.34-.68,10,10,0,0,1-3.75-2.15,11.23,11.23,0,0,1-2.7-3.75,13,13,0,0,1-1-5.47V106.59H105V180c0,2.3.35,3.92,1.06,4.86a3.05,3.05,0,0,0,2.49,1.41h.79a3.06,3.06,0,0,0,2.5-1.41c.7-.94,1.06-2.56,1.06-4.86V106.59h8.94v74.62a13,13,0,0,1-1,5.47,11.37,11.37,0,0,1-2.7,3.75,10.13,10.13,0,0,1-3.81,2.15,14.42,14.42,0,0,1-4.28.68Z"/><path class="cls-1" d="M127.59,192.52V106.59h13.94a15.59,15.59,0,0,1,4.27.62,10,10,0,0,1,3.82,2,10.91,10.91,0,0,1,2.7,3.62,12.58,12.58,0,0,1,1.05,5.41v62.57a12.52,12.52,0,0,1-1.05,5.41,10.85,10.85,0,0,1-2.7,3.63,10,10,0,0,1-3.82,2,15.57,15.57,0,0,1-4.27.61Zm8.94-78.92v71.91h4.34a3.15,3.15,0,0,0,2.5-1.29c.7-.86,1-2.39,1-4.6V119.5c0-2.21-.35-3.75-1-4.61a3.15,3.15,0,0,0-2.5-1.29Z"/><path class="cls-1" d="M170.73,193.26a14.12,14.12,0,0,1-4.34-.68,10,10,0,0,1-3.75-2.15,11.23,11.23,0,0,1-2.7-3.75,13,13,0,0,1-1.05-5.47V117.9a13,13,0,0,1,1.05-5.47,11.43,11.43,0,0,1,2.7-3.75,10.18,10.18,0,0,1,3.75-2.15,14.11,14.11,0,0,1,4.34-.67h2.1a14.4,14.4,0,0,1,4.28.67,10.19,10.19,0,0,1,3.81,2.15,11.43,11.43,0,0,1,2.7,3.75,13,13,0,0,1,1,5.47v63.31a13,13,0,0,1-1,5.47,11.23,11.23,0,0,1-2.7,3.75,10.05,10.05,0,0,1-3.81,2.15,14.42,14.42,0,0,1-4.28.68Zm.66-80.4a3,3,0,0,0-2.5,1.48,8.35,8.35,0,0,0-1,4.79V180c0,2.3.34,3.92,1,4.86a3.06,3.06,0,0,0,2.5,1.41h.79a3.05,3.05,0,0,0,2.49-1.41c.71-.94,1.06-2.56,1.06-4.86V119.13a8.34,8.34,0,0,0-1.06-4.79,3,3,0,0,0-2.49-1.48Z"/><path class="cls-1" d="M195.33,192.52l-6.84-85.93H197l4.21,57.29h.26l5.65-57.29h7.11l6.18,57.29h.26l4.34-57.29h7.76L226,192.52h-8.81l-6.31-53.23h-.13l-5.53,53.23Z"/><path class="cls-1" d="M245.83,106.59v85.93h-8.94V106.59Z"/><path class="cls-1" d="M260.83,113.6v32.82h9.07v6.27h-9.07v32.82h12.36v7H251.88V106.59h20.65v7Z"/></g></svg>