<svg xmlns="http://www.w3.org/2000/svg" viewBox="0 0 1721.38 196.95"><defs><style>.cls-1{fill:#191919;}</style></defs><g id="Warstwa_1" data-name="Warstwa 1"><path class="cls-1" d="M15.41,195.29,0,1.66H19.27l9.48,129.08h.59L42.09,1.66h16L72,130.74h.6L82.4,1.66H99.88L84.47,195.29H64.61L50.39,75.34h-.3l-12.45,120Z"/><path class="cls-1" d="M129.22,17.45v74h20.45v14.13H129.22v74h27.86v15.79h-48V1.66H155.6V17.45Z"/><path class="cls-1" d="M226.14,77q0,8.86-3,13.15a13.94,13.94,0,0,1-7.41,5.68,12.65,12.65,0,0,1,7.41,5.4q3,4.31,3,13.16v55.12a26.85,26.85,0,0,1-2.37,11.64,23,23,0,0,1-6.08,8,24.88,24.88,0,0,1-8.59,4.57,32.2,32.2,0,0,1-9.64,1.53H168.05V1.66h31.41a32.2,32.2,0,0,1,9.64,1.53A22.88,22.88,0,0,1,217.69,8a25.72,25.72,0,0,1,6.08,8.45,29.23,29.23,0,0,1,2.37,12.33Zm-27,11.91q6.81,0,6.82-13V31.58q0-7.48-2.38-10.8T198,17.45H188.2V88.92ZM206,115.79q0-13-7.12-13H188.2V179.5h9.49a7.23,7.23,0,0,0,5.92-3.05q2.37-3,2.38-9.7Z"/><path class="cls-1" d="M275.93,79.5V29.64q0-7.49-2.33-10.67a6.77,6.77,0,0,0-5.54-3.18h-1.75a6.85,6.85,0,0,0-5.54,3.05q-2.32,3-2.32,11.08V54.57q0,13.29,5.92,23.27a184.45,184.45,0,0,0,13,19.11,193,193,0,0,1,13,19q5.93,9.82,5.92,23.4V169.8a30.73,30.73,0,0,1-2.23,12.33,23.13,23.13,0,0,1-6.11,8.45,24.64,24.64,0,0,1-8.64,4.84,32,32,0,0,1-9.83,1.53H265.4a32,32,0,0,1-9.83-1.53,26.21,26.21,0,0,1-8.79-4.84,23.68,23.68,0,0,1-6.4-8.45A29,29,0,0,1,238,169.8V117.17h18.68V167q0,7.75,2.62,10.94a8,8,0,0,0,6.43,3.19h1.46a7.63,7.63,0,0,0,6.27-3.19q2.48-3.18,2.48-10.94V142.38q0-13.31-5.93-23.13a193.52,193.52,0,0,0-13-19,184.45,184.45,0,0,1-13-19.11Q238,71.19,238,57.62V27.15a29.06,29.06,0,0,1,2.39-12.33,24.63,24.63,0,0,1,6.25-8.45,25,25,0,0,1,8.64-4.85A32.32,32.32,0,0,1,265.11,0h3a31.36,31.36,0,0,1,9.53,1.52,24.83,24.83,0,0,1,8.64,4.85,23.22,23.22,0,0,1,6.11,8.45,30.77,30.77,0,0,1,2.23,12.33V79.5Z"/><path class="cls-1" d="M329.28,1.66V195.29H309.13V1.66Z"/><path class="cls-1" d="M398.34,17.45H378.48V195.29H358.32V17.45H338.47V1.66h59.87Z"/><path class="cls-1" d="M427.38,17.45v74h20.45v14.13H427.38v74h27.86v15.79h-48V1.66h46.53V17.45Z"/><path class="cls-1" d="M541.49,197a31.64,31.64,0,0,1-9.78-1.53,23,23,0,0,1-8.45-4.84,25.62,25.62,0,0,1-6.08-8.45,29.19,29.19,0,0,1-2.37-12.33V1.66H535V167c0,5.17.78,8.82,2.37,10.94a6.88,6.88,0,0,0,5.63,3.19h1.78a6.89,6.89,0,0,0,5.63-3.19q2.37-3.18,2.37-10.94V1.66h20.16V169.8a29.19,29.19,0,0,1-2.38,12.33,25.6,25.6,0,0,1-6.07,8.45,22.92,22.92,0,0,1-8.6,4.84,32.13,32.13,0,0,1-9.63,1.53Z"/><path class="cls-1" d="M629.68,195.29l-27.14-136h-.29v136h-16.9V1.66h22.82l25.49,134.07V1.66h18.68V195.29Z"/><path class="cls-1" d="M665.08,195.29V1.66H696.5a35.42,35.42,0,0,1,9.63,1.39,22.33,22.33,0,0,1,8.59,4.57,24.41,24.41,0,0,1,6.08,8.17A28.25,28.25,0,0,1,723.17,28V169a28.25,28.25,0,0,1-2.37,12.19,24.41,24.41,0,0,1-6.08,8.17,22.19,22.19,0,0,1-8.59,4.57,35,35,0,0,1-9.63,1.39ZM685.23,17.45V179.5H695a7.06,7.06,0,0,0,5.63-2.91Q703,173.68,703,166.2V30.75q0-7.48-2.38-10.39A7.06,7.06,0,0,0,695,17.45Z"/><path class="cls-1" d="M756.36,17.45v74h20.45v14.13H756.36v74h27.87v15.79h-48V1.66h46.53V17.45Z"/><path class="cls-1" d="M853.28,79.78q0,8.86-3,13.15a13.94,13.94,0,0,1-7.41,5.68,12.65,12.65,0,0,1,7.41,5.4q3,4.3,3,13.16v45.15q0,17.46,1.19,24.52c.79,4.71,1.48,7.52,2.07,8.45H836.39c-1.39-2.22-2.27-5.91-2.67-11.08s-.59-12.47-.59-21.89V118.83q0-13.29-7.11-13.29H815.35v89.75H795.19V1.66H826.9a27.46,27.46,0,0,1,18.53,6.79q7.85,6.8,7.85,20.08ZM826,91.69q7.11,0,7.11-13V31.3q0-7.2-2.37-10.52a7.08,7.08,0,0,0-5.93-3.33h-9.48V91.69Z"/><path class="cls-1" d="M942.79,197a31.64,31.64,0,0,1-9.78-1.53,23.09,23.09,0,0,1-8.45-4.84,25.46,25.46,0,0,1-6.07-8.45,29,29,0,0,1-2.38-12.33V27.15a29.07,29.07,0,0,1,2.38-12.33,25.56,25.56,0,0,1,6.07-8.45A23.26,23.26,0,0,1,933,1.52,31.93,31.93,0,0,1,942.79,0h4.74a32.43,32.43,0,0,1,9.63,1.52,23,23,0,0,1,8.6,4.85,25.87,25.87,0,0,1,6.08,8.45,29.23,29.23,0,0,1,2.37,12.33V79.78H954.05V29.64q0-7.49-2.37-10.67a6.9,6.9,0,0,0-5.63-3.18h-1.78a7,7,0,0,0-5.63,3.05q-2.37,3-2.37,11.08V167q0,7.75,2.37,10.94a6.89,6.89,0,0,0,5.63,3.19h1.78a6.89,6.89,0,0,0,5.63-3.19q2.37-3.18,2.37-10.94V116.89h20.16V169.8a29.19,29.19,0,0,1-2.37,12.33,25.76,25.76,0,0,1-6.08,8.45,22.84,22.84,0,0,1-8.6,4.84,32.13,32.13,0,0,1-9.63,1.53Z"/><path class="cls-1" d="M1013.33,197a31.64,31.64,0,0,1-9.78-1.53,23.09,23.09,0,0,1-8.45-4.84,25.46,25.46,0,0,1-6.07-8.45,29,29,0,0,1-2.38-12.33V27.15A29.07,29.07,0,0,1,989,14.82a25.56,25.56,0,0,1,6.07-8.45,23.26,23.26,0,0,1,8.45-4.85A31.93,31.93,0,0,1,1013.33,0h4.74a32.43,32.43,0,0,1,9.63,1.52,23,23,0,0,1,8.6,4.85,25.87,25.87,0,0,1,6.08,8.45,29.23,29.23,0,0,1,2.37,12.33V169.8a29.19,29.19,0,0,1-2.37,12.33,25.76,25.76,0,0,1-6.08,8.45,22.84,22.84,0,0,1-8.6,4.84,32.13,32.13,0,0,1-9.63,1.53Zm1.48-181.16q-3.25,0-5.63,3.32t-2.37,10.81V167q0,7.75,2.37,10.94a6.89,6.89,0,0,0,5.63,3.19h1.78a6.89,6.89,0,0,0,5.63-3.19q2.37-3.18,2.37-10.94V29.92q0-7.49-2.37-10.81t-5.63-3.32Z"/><path class="cls-1" d="M1101.52,195.29l-27.13-136h-.3v136h-16.9V1.66H1080l25.49,134.07V1.66h18.67V195.29Z"/><path class="cls-1" d="M1174.27,79.5V29.64q0-7.49-2.34-10.67a6.75,6.75,0,0,0-5.53-3.18h-1.75a6.83,6.83,0,0,0-5.54,3.05q-2.34,3-2.33,11.08V54.57q0,13.29,5.93,23.27a184.45,184.45,0,0,0,13,19.11,194.62,194.62,0,0,1,13,19q5.93,9.82,5.93,23.4V169.8a30.73,30.73,0,0,1-2.24,12.33,23.11,23.11,0,0,1-6.1,8.45,24.78,24.78,0,0,1-8.65,4.84,31.89,31.89,0,0,1-9.82,1.53h-4.18a32,32,0,0,1-9.83-1.53,26.31,26.31,0,0,1-8.79-4.84,23.79,23.79,0,0,1-6.4-8.45,29,29,0,0,1-2.38-12.33V117.17H1155V167q0,7.75,2.63,10.94a8,8,0,0,0,6.42,3.19h1.46a7.61,7.61,0,0,0,6.27-3.19q2.49-3.18,2.49-10.94V142.38q0-13.31-5.93-23.13a197.07,197.07,0,0,0-13-19,182.9,182.9,0,0,1-13-19.11q-5.94-10-5.93-23.54V27.15a29.07,29.07,0,0,1,2.38-12.33A24.75,24.75,0,0,1,1145,6.37a25,25,0,0,1,8.65-4.85A32.2,32.2,0,0,1,1163.44,0h3A31.31,31.31,0,0,1,1176,1.52a24.83,24.83,0,0,1,8.64,4.85,23.1,23.1,0,0,1,6.11,8.45,30.76,30.76,0,0,1,2.24,12.33V79.5Z"/><path class="cls-1" d="M1262.89,17.45H1243V195.29h-20.16V17.45H1203V1.66h59.87Z"/><path class="cls-1" d="M1329.87,79.78c0,5.91-1,10.29-3,13.15a13.91,13.91,0,0,1-7.41,5.68,12.62,12.62,0,0,1,7.41,5.4c2,2.87,3,7.25,3,13.16v45.15q0,17.46,1.18,24.52c.79,4.71,1.48,7.52,2.08,8.45H1313q-2.07-3.33-2.67-11.08t-.59-21.89V118.83q0-13.29-7.11-13.29h-10.67v89.75h-20.16V1.66h31.72A27.45,27.45,0,0,1,1322,8.45q7.85,6.8,7.86,20.08ZM1302.6,91.69q7.11,0,7.11-13V31.3q0-7.2-2.37-10.52a7.06,7.06,0,0,0-5.93-3.33h-9.48V91.69Z"/><path class="cls-1" d="M1371.36,197a31.64,31.64,0,0,1-9.78-1.53,23,23,0,0,1-8.45-4.84,25.62,25.62,0,0,1-6.08-8.45,29.19,29.19,0,0,1-2.37-12.33V1.66h20.16V167c0,5.17.78,8.82,2.37,10.94a6.88,6.88,0,0,0,5.63,3.19h1.78a6.89,6.89,0,0,0,5.63-3.19q2.37-3.18,2.37-10.94V1.66h20.16V169.8a29.19,29.19,0,0,1-2.38,12.33,25.6,25.6,0,0,1-6.07,8.45,22.92,22.92,0,0,1-8.6,4.84,32.13,32.13,0,0,1-9.63,1.53Z"/><path class="cls-1" d="M1441.9,197a31.55,31.55,0,0,1-9.78-1.53,23,23,0,0,1-8.45-4.84,25.62,25.62,0,0,1-6.08-8.45,29.19,29.19,0,0,1-2.37-12.33V27.15a29.23,29.23,0,0,1,2.37-12.33,25.72,25.72,0,0,1,6.08-8.45,23.18,23.18,0,0,1,8.45-4.85A31.84,31.84,0,0,1,1441.9,0h4.74a32.43,32.43,0,0,1,9.63,1.52,23.08,23.08,0,0,1,8.6,4.85,25.7,25.7,0,0,1,6.07,8.45,29.23,29.23,0,0,1,2.37,12.33V79.78h-20.15V29.64q0-7.49-2.37-10.67a6.9,6.9,0,0,0-5.63-3.18h-1.78a7,7,0,0,0-5.63,3.05c-1.59,2-2.37,5.72-2.37,11.08V167c0,5.17.78,8.82,2.37,10.94a6.88,6.88,0,0,0,5.63,3.19h1.78a6.89,6.89,0,0,0,5.63-3.19q2.37-3.18,2.37-10.94V116.89h20.15V169.8a29.19,29.19,0,0,1-2.37,12.33,25.6,25.6,0,0,1-6.07,8.45,22.92,22.92,0,0,1-8.6,4.84,32.13,32.13,0,0,1-9.63,1.53Z"/><path class="cls-1" d="M1541.78,17.45h-19.86V195.29h-20.15V17.45h-19.86V1.66h59.87Z"/><path class="cls-1" d="M1570.82,1.66V195.29h-20.15V1.66Z"/><path class="cls-1" d="M1610.53,197a31.64,31.64,0,0,1-9.78-1.53,23.05,23.05,0,0,1-8.44-4.84,25.48,25.48,0,0,1-6.08-8.45,29.19,29.19,0,0,1-2.37-12.33V27.15a29.23,29.23,0,0,1,2.37-12.33,25.58,25.58,0,0,1,6.08-8.45,23.22,23.22,0,0,1,8.44-4.85A31.93,31.93,0,0,1,1610.53,0h4.75a32.43,32.43,0,0,1,9.63,1.52,23.15,23.15,0,0,1,8.6,4.85,25.85,25.85,0,0,1,6.07,8.45A29.23,29.23,0,0,1,1642,27.15V169.8a29.19,29.19,0,0,1-2.37,12.33,25.74,25.74,0,0,1-6.07,8.45,23,23,0,0,1-8.6,4.84,32.13,32.13,0,0,1-9.63,1.53ZM1612,15.79q-3.27,0-5.63,3.32T1604,29.92V167q0,7.75,2.38,10.94a6.86,6.86,0,0,0,5.63,3.19h1.78a6.9,6.9,0,0,0,5.63-3.19q2.37-3.18,2.37-10.94V29.92q0-7.49-2.37-10.81c-1.59-2.21-3.46-3.32-5.63-3.32Z"/><path class="cls-1" d="M1698.72,195.29l-27.13-136h-.3v136H1654.4V1.66h22.82l25.49,134.07V1.66h18.67V195.29Z"/></g></svg>